<svg width="779" height="800" viewBox="0 0 779 800" fill="none" xmlns="http://www.w3.org/2000/svg">
<path d="M651.954 147.067C651.954 117.485 627.887 93.4185 598.305 93.4185C568.723 93.4185 544.656 117.485 544.656 147.067C544.656 176.649 568.723 200.716 598.305 200.716C627.887 200.716 651.954 176.649 651.954 147.067ZM598.305 163.068C589.482 163.068 582.305 155.89 582.305 147.067C582.305 138.244 589.482 131.067 598.305 131.067C607.128 131.067 614.306 138.244 614.306 147.067C614.306 155.89 607.128 163.068 598.305 163.068Z" fill="#1DA1F2"/>
<path d="M777.789 84.6784C774.286 74.8898 763.509 69.7979 753.721 73.3048L734.014 80.362C709.121 32.6674 659.137 0 602.047 0C601.65 0 601.249 0.00188241 600.852 0.00376482C547.655 0.440484 498.419 29.5783 472.359 76.0494C443.236 127.966 410.401 173.814 374.763 212.315C269.678 325.83 119.322 484.6 114.136 490.074L10.7539 595.053C-2.12741 608.12 -3.59005 627.618 7.19617 642.465C17.9843 657.31 36.9797 661.946 53.3849 653.731C120.126 620.375 198.756 617.483 269.12 645.802C303.994 659.838 340.675 667.678 378.34 669.206L417.633 787.122C420.261 795.012 427.608 800 435.49 800C437.461 800 439.469 799.688 441.442 799.029C451.306 795.742 456.637 785.082 453.35 775.22L417.786 668.493C427.787 667.717 437.7 666.49 447.5 664.824L488.256 787.122C490.883 795.01 498.23 800 506.112 800C508.085 800 510.09 799.688 512.064 799.029C521.928 795.742 527.259 785.082 523.972 775.218L484.351 656.325C537.048 640.914 585.382 612.297 625.338 572.1C687.78 509.282 721.874 426.193 721.343 338.132C721.151 308.759 717.106 279.743 709.299 251.71C736.431 223.467 751.418 185.634 750.761 146.135C750.585 135.686 749.295 125.504 747.047 115.682L766.408 108.747C776.202 105.242 781.294 94.4669 777.789 84.6784ZM713.126 146.768C713.667 179.339 699.965 210.399 675.529 231.985C669.942 236.92 667.796 244.689 670.053 251.793C678.919 279.69 683.51 308.821 683.703 338.367C684.173 416.321 653.966 489.905 598.644 545.56C584.419 559.872 568.99 572.516 552.602 583.425C544.355 557.709 540.167 530.909 540.167 503.473C540.167 445.689 558.616 390.915 593.522 345.07C599.82 336.799 598.22 324.989 589.949 318.69C581.674 312.39 569.864 313.994 563.569 322.263C523.63 374.718 502.519 437.38 502.519 503.473C502.519 537.556 508.171 570.798 519.308 602.533C480.086 621.709 436.802 631.854 392.002 631.854C354.379 631.854 317.764 624.797 283.176 610.876C246.562 596.141 207.976 588.814 169.582 588.814C125.423 588.814 81.5213 598.512 41.2132 617.777L141.086 516.36C141.171 516.274 141.256 516.187 141.34 516.099C142.871 514.482 295.837 352.99 402.391 237.89C440.038 197.218 474.625 148.965 505.193 94.465C524.665 59.7458 561.436 37.9757 601.157 37.6501C642.365 37.3188 678.72 59.7797 698.161 93.2019L692.539 95.2161C682.752 98.7211 677.66 109.498 681.165 119.285C683.919 126.974 691.163 131.767 698.886 131.767C700.992 131.767 703.136 131.411 705.233 130.66L711.265 128.499C712.368 134.442 713.019 140.539 713.126 146.768Z" fill="#1DA1F2"/>
<path d="M473.473 327.997C473.456 327.997 473.441 327.997 473.426 327.997C463.052 327.997 454.63 336.394 454.604 346.776C454.602 347.463 454.594 348.148 454.585 348.82C453.947 390.493 437.274 429.878 407.641 459.72C378.007 489.562 338.74 506.504 297.078 507.424C280.238 507.793 263.859 505.651 248.101 501.03L405.437 327.78C412.426 320.083 411.852 308.179 404.155 301.189C396.46 294.2 384.554 294.772 377.564 302.469L201.777 496.036C197.781 500.439 196.096 506.47 197.241 512.307C198.381 518.143 202.216 523.097 207.577 525.667C234.52 538.58 263.343 545.114 293.326 545.114C294.851 545.114 296.378 545.097 297.908 545.063C349.362 543.926 397.819 523.039 434.355 486.247C470.887 449.459 491.441 400.857 492.229 349.379C492.243 348.54 492.25 347.702 492.252 346.866C492.276 336.47 483.868 328.021 473.473 327.997Z" fill="#1DA1F2"/>
<path d="M623.614 262.941C617.487 267.491 611.454 272.338 605.684 277.349C597.834 284.165 596.997 296.054 603.815 303.904C607.536 308.19 612.771 310.385 618.035 310.385C622.411 310.385 626.807 308.868 630.37 305.773C635.421 301.387 640.699 297.146 646.058 293.167C654.407 286.97 656.148 275.178 649.951 266.832C643.75 258.487 631.961 256.744 623.614 262.941Z" fill="#1DA1F2"/>
</svg>
